ISO-10303-21;
HEADER;
/* Generated by software containing ST-Developer
 * from STEP Tools, Inc. (www.steptools.com) 
 */

FILE_DESCRIPTION(
/* description */ (''),
/* implementation_level */ '2;1');

FILE_NAME(
/* name */ 'Motor.step',
/* time_stamp */ '2026-05-10T11:59:21+02:00',
/* author */ (''),
/* organization */ (''),
/* preprocessor_version */ 'ST-DEVELOPER v20.1',
/* originating_system */ 'Autodesk Translation Framework v15.8.0.0',
/* authorisation */ '');

FILE_SCHEMA (('AUTOMOTIVE_DESIGN { 1 0 10303 214 3 1 1 }'));
ENDSEC;

DATA;
#10=MECHANICAL_DESIGN_GEOMETRIC_PRESENTATION_REPRESENTATION('',(#13),#922);
#11=SHAPE_REPRESENTATION_RELATIONSHIP('SRR','None',#929,#12);
#12=ADVANCED_BREP_SHAPE_REPRESENTATION('',(#14),#921);
#13=STYLED_ITEM('',(#938),#14);
#14=MANIFOLD_SOLID_BREP('Body1',#526);
#15=FACE_BOUND('',#100,.T.);
#16=FACE_BOUND('',#103,.T.);
#17=FACE_BOUND('',#106,.T.);
#18=FACE_BOUND('',#109,.T.);
#19=FACE_BOUND('',#112,.T.);
#20=FACE_BOUND('',#118,.T.);
#21=FACE_BOUND('',#122,.T.);
#22=FACE_BOUND('',#129,.T.);
#23=FACE_BOUND('',#130,.T.);
#24=FACE_BOUND('',#131,.T.);
#25=FACE_BOUND('',#132,.T.);
#26=FACE_BOUND('',#133,.T.);
#27=PLANE('',#543);
#28=PLANE('',#547);
#29=PLANE('',#551);
#30=PLANE('',#555);
#31=PLANE('',#559);
#32=PLANE('',#563);
#33=PLANE('',#567);
#34=PLANE('',#571);
#35=PLANE('',#575);
#36=PLANE('',#576);
#37=PLANE('',#577);
#38=PLANE('',#584);
#39=PLANE('',#588);
#40=PLANE('',#589);
#41=PLANE('',#590);
#42=PLANE('',#591);
#43=PLANE('',#597);
#44=PLANE('',#598);
#45=PLANE('',#599);
#46=PLANE('',#600);
#47=PLANE('',#601);
#48=PLANE('',#602);
#49=PLANE('',#603);
#50=PLANE('',#604);
#51=FACE_OUTER_BOUND('',#88,.T.);
#52=FACE_OUTER_BOUND('',#89,.T.);
#53=FACE_OUTER_BOUND('',#90,.T.);
#54=FACE_OUTER_BOUND('',#91,.T.);
#55=FACE_OUTER_BOUND('',#92,.T.);
#56=FACE_OUTER_BOUND('',#93,.T.);
#57=FACE_OUTER_BOUND('',#94,.T.);
#58=FACE_OUTER_BOUND('',#95,.T.);
#59=FACE_OUTER_BOUND('',#96,.T.);
#60=FACE_OUTER_BOUND('',#97,.T.);
#61=FACE_OUTER_BOUND('',#98,.T.);
#62=FACE_OUTER_BOUND('',#99,.T.);
#63=FACE_OUTER_BOUND('',#101,.T.);
#64=FACE_OUTER_BOUND('',#102,.T.);
#65=FACE_OUTER_BOUND('',#104,.T.);
#66=FACE_OUTER_BOUND('',#105,.T.);
#67=FACE_OUTER_BOUND('',#107,.T.);
#68=FACE_OUTER_BOUND('',#108,.T.);
#69=FACE_OUTER_BOUND('',#110,.T.);
#70=FACE_OUTER_BOUND('',#111,.T.);
#71=FACE_OUTER_BOUND('',#113,.T.);
#72=FACE_OUTER_BOUND('',#114,.T.);
#73=FACE_OUTER_BOUND('',#115,.T.);
#74=FACE_OUTER_BOUND('',#116,.T.);
#75=FACE_OUTER_BOUND('',#117,.T.);
#76=FACE_OUTER_BOUND('',#119,.T.);
#77=FACE_OUTER_BOUND('',#120,.T.);
#78=FACE_OUTER_BOUND('',#121,.T.);
#79=FACE_OUTER_BOUND('',#123,.T.);
#80=FACE_OUTER_BOUND('',#124,.T.);
#81=FACE_OUTER_BOUND('',#125,.T.);
#82=FACE_OUTER_BOUND('',#126,.T.);
#83=FACE_OUTER_BOUND('',#127,.T.);
#84=FACE_OUTER_BOUND('',#128,.T.);
#85=FACE_OUTER_BOUND('',#134,.T.);
#86=FACE_OUTER_BOUND('',#135,.T.);
#87=FACE_OUTER_BOUND('',#136,.T.);
#88=EDGE_LOOP('',(#346,#347,#348,#349));
#89=EDGE_LOOP('',(#350));
#90=EDGE_LOOP('',(#351,#352,#353,#354));
#91=EDGE_LOOP('',(#355));
#92=EDGE_LOOP('',(#356,#357,#358,#359));
#93=EDGE_LOOP('',(#360));
#94=EDGE_LOOP('',(#361,#362,#363,#364));
#95=EDGE_LOOP('',(#365));
#96=EDGE_LOOP('',(#366,#367,#368,#369));
#97=EDGE_LOOP('',(#370));
#98=EDGE_LOOP('',(#371,#372,#373,#374));
#99=EDGE_LOOP('',(#375));
#100=EDGE_LOOP('',(#376));
#101=EDGE_LOOP('',(#377,#378,#379,#380));
#102=EDGE_LOOP('',(#381));
#103=EDGE_LOOP('',(#382));
#104=EDGE_LOOP('',(#383,#384,#385,#386));
#105=EDGE_LOOP('',(#387));
#106=EDGE_LOOP('',(#388));
#107=EDGE_LOOP('',(#389,#390,#391,#392));
#108=EDGE_LOOP('',(#393));
#109=EDGE_LOOP('',(#394));
#110=EDGE_LOOP('',(#395,#396,#397,#398));
#111=EDGE_LOOP('',(#399,#400));
#112=EDGE_LOOP('',(#401));
#113=EDGE_LOOP('',(#402,#403,#404,#405));
#114=EDGE_LOOP('',(#406,#407,#408,#409));
#115=EDGE_LOOP('',(#410));
#116=EDGE_LOOP('',(#411,#412,#413,#414));
#117=EDGE_LOOP('',(#415));
#118=EDGE_LOOP('',(#416,#417));
#119=EDGE_LOOP('',(#418,#419,#420,#421));
#120=EDGE_LOOP('',(#422,#423,#424,#425));
#121=EDGE_LOOP('',(#426,#427,#428,#429,#430,#431));
#122=EDGE_LOOP('',(#432));
#123=EDGE_LOOP('',(#433,#434,#435,#436,#437,#438));
#124=EDGE_LOOP('',(#439,#440));
#125=EDGE_LOOP('',(#441));
#126=EDGE_LOOP('',(#442,#443,#444,#445));
#127=EDGE_LOOP('',(#446,#447,#448,#449));
#128=EDGE_LOOP('',(#450,#451,#452,#453));
#129=EDGE_LOOP('',(#454));
#130=EDGE_LOOP('',(#455));
#131=EDGE_LOOP('',(#456));
#132=EDGE_LOOP('',(#457));
#133=EDGE_LOOP('',(#458));
#134=EDGE_LOOP('',(#459,#460,#461,#462));
#135=EDGE_LOOP('',(#463,#464,#465,#466));
#136=EDGE_LOOP('',(#467,#468,#469,#470,#471,#472,#473,#474,#475));
#137=LINE('',#779,#174);
#138=LINE('',#786,#175);
#139=LINE('',#793,#176);
#140=LINE('',#800,#177);
#141=LINE('',#807,#178);
#142=LINE('',#814,#179);
#143=LINE('',#821,#180);
#144=LINE('',#828,#181);
#145=LINE('',#835,#182);
#146=LINE('',#841,#183);
#147=LINE('',#843,#184);
#148=LINE('',#845,#185);
#149=LINE('',#846,#186);
#150=LINE('',#855,#187);
#151=LINE('',#862,#188);
#152=LINE('',#868,#189);
#153=LINE('',#870,#190);
#154=LINE('',#872,#191);
#155=LINE('',#873,#192);
#156=LINE('',#876,#193);
#157=LINE('',#878,#194);
#158=LINE('',#879,#195);
#159=LINE('',#882,#196);
#160=LINE('',#884,#197);
#161=LINE('',#886,#198);
#162=LINE('',#887,#199);
#163=LINE('',#892,#200);
#164=LINE('',#900,#201);
#165=LINE('',#901,#202);
#166=LINE('',#904,#203);
#167=LINE('',#906,#204);
#168=LINE('',#907,#205);
#169=LINE('',#910,#206);
#170=LINE('',#912,#207);
#171=LINE('',#913,#208);
#172=LINE('',#915,#209);
#173=LINE('',#916,#210);
#174=VECTOR('',#611,1.2645);
#175=VECTOR('',#620,1.2645);
#176=VECTOR('',#629,1.2645);
#177=VECTOR('',#638,1.2645);
#178=VECTOR('',#647,1.2645);
#179=VECTOR('',#656,3.50000000000001);
#180=VECTOR('',#665,3.50000000000001);
#181=VECTOR('',#674,3.5);
#182=VECTOR('',#683,3.5);
#183=VECTOR('',#690,10.);
#184=VECTOR('',#691,10.);
#185=VECTOR('',#692,10.);
#186=VECTOR('',#693,10.);
#187=VECTOR('',#706,6.5);
#188=VECTOR('',#715,6.625);
#189=VECTOR('',#722,10.);
#190=VECTOR('',#723,10.);
#191=VECTOR('',#724,10.);
#192=VECTOR('',#725,10.);
#193=VECTOR('',#728,10.);
#194=VECTOR('',#729,10.);
#195=VECTOR('',#730,10.);
#196=VECTOR('',#733,10.);
#197=VECTOR('',#734,10.);
#198=VECTOR('',#735,10.);
#199=VECTOR('',#736,10.);
#200=VECTOR('',#741,12.15);
#201=VECTOR('',#754,10.);
#202=VECTOR('',#755,10.);
#203=VECTOR('',#758,10.);
#204=VECTOR('',#759,10.);
#205=VECTOR('',#760,10.);
#206=VECTOR('',#763,10.);
#207=VECTOR('',#764,10.);
#208=VECTOR('',#765,10.);
#209=VECTOR('',#768,10.);
#210=VECTOR('',#769,10.);
#211=CIRCLE('',#541,1.2645);
#212=CIRCLE('',#542,1.2645);
#213=CIRCLE('',#545,1.2645);
#214=CIRCLE('',#546,1.2645);
#215=CIRCLE('',#549,1.2645);
#216=CIRCLE('',#550,1.2645);
#217=CIRCLE('',#553,1.2645);
#218=CIRCLE('',#554,1.2645);
#219=CIRCLE('',#557,1.2645);
#220=CIRCLE('',#558,1.2645);
#221=CIRCLE('',#561,3.50000000000001);
#222=CIRCLE('',#562,3.50000000000001);
#223=CIRCLE('',#565,3.50000000000001);
#224=CIRCLE('',#566,3.50000000000001);
#225=CIRCLE('',#569,3.5);
#226=CIRCLE('',#570,3.5);
#227=CIRCLE('',#573,3.5);
#228=CIRCLE('',#574,3.5);
#229=CIRCLE('',#578,3.);
#230=CIRCLE('',#580,3.);
#231=CIRCLE('',#582,6.5);
#232=CIRCLE('',#583,6.5);
#233=CIRCLE('',#586,6.625);
#234=CIRCLE('',#587,6.625);
#235=CIRCLE('',#593,12.15);
#236=CIRCLE('',#594,12.15);
#237=CIRCLE('',#595,12.15);
#238=CIRCLE('',#596,12.15);
#239=VERTEX_POINT('',#776);
#240=VERTEX_POINT('',#778);
#241=VERTEX_POINT('',#783);
#242=VERTEX_POINT('',#785);
#243=VERTEX_POINT('',#790);
#244=VERTEX_POINT('',#792);
#245=VERTEX_POINT('',#797);
#246=VERTEX_POINT('',#799);
#247=VERTEX_POINT('',#804);
#248=VERTEX_POINT('',#806);
#249=VERTEX_POINT('',#811);
#250=VERTEX_POINT('',#813);
#251=VERTEX_POINT('',#818);
#252=VERTEX_POINT('',#820);
#253=VERTEX_POINT('',#825);
#254=VERTEX_POINT('',#827);
#255=VERTEX_POINT('',#832);
#256=VERTEX_POINT('',#834);
#257=VERTEX_POINT('',#839);
#258=VERTEX_POINT('',#840);
#259=VERTEX_POINT('',#842);
#260=VERTEX_POINT('',#844);
#261=VERTEX_POINT('',#852);
#262=VERTEX_POINT('',#854);
#263=VERTEX_POINT('',#859);
#264=VERTEX_POINT('',#861);
#265=VERTEX_POINT('',#866);
#266=VERTEX_POINT('',#867);
#267=VERTEX_POINT('',#869);
#268=VERTEX_POINT('',#871);
#269=VERTEX_POINT('',#875);
#270=VERTEX_POINT('',#877);
#271=VERTEX_POINT('',#881);
#272=VERTEX_POINT('',#883);
#273=VERTEX_POINT('',#885);
#274=VERTEX_POINT('',#889);
#275=VERTEX_POINT('',#891);
#276=VERTEX_POINT('',#899);
#277=VERTEX_POINT('',#903);
#278=VERTEX_POINT('',#905);
#279=VERTEX_POINT('',#909);
#280=VERTEX_POINT('',#911);
#281=EDGE_CURVE('',#239,#239,#211,.T.);
#282=EDGE_CURVE('',#239,#240,#137,.T.);
#283=EDGE_CURVE('',#240,#240,#212,.T.);
#284=EDGE_CURVE('',#241,#241,#213,.T.);
#285=EDGE_CURVE('',#241,#242,#138,.T.);
#286=EDGE_CURVE('',#242,#242,#214,.T.);
#287=EDGE_CURVE('',#243,#243,#215,.T.);
#288=EDGE_CURVE('',#243,#244,#139,.T.);
#289=EDGE_CURVE('',#244,#244,#216,.T.);
#290=EDGE_CURVE('',#245,#245,#217,.T.);
#291=EDGE_CURVE('',#245,#246,#140,.T.);
#292=EDGE_CURVE('',#246,#246,#218,.T.);
#293=EDGE_CURVE('',#247,#247,#219,.T.);
#294=EDGE_CURVE('',#247,#248,#141,.T.);
#295=EDGE_CURVE('',#248,#248,#220,.T.);
#296=EDGE_CURVE('',#249,#249,#221,.T.);
#297=EDGE_CURVE('',#249,#250,#142,.T.);
#298=EDGE_CURVE('',#250,#250,#222,.T.);
#299=EDGE_CURVE('',#251,#251,#223,.T.);
#300=EDGE_CURVE('',#251,#252,#143,.T.);
#301=EDGE_CURVE('',#252,#252,#224,.T.);
#302=EDGE_CURVE('',#253,#253,#225,.T.);
#303=EDGE_CURVE('',#253,#254,#144,.T.);
#304=EDGE_CURVE('',#254,#254,#226,.T.);
#305=EDGE_CURVE('',#255,#255,#227,.T.);
#306=EDGE_CURVE('',#255,#256,#145,.T.);
#307=EDGE_CURVE('',#256,#256,#228,.T.);
#308=EDGE_CURVE('',#257,#258,#146,.T.);
#309=EDGE_CURVE('',#259,#257,#147,.T.);
#310=EDGE_CURVE('',#259,#260,#148,.T.);
#311=EDGE_CURVE('',#258,#260,#149,.T.);
#312=EDGE_CURVE('',#258,#257,#229,.T.);
#313=EDGE_CURVE('',#259,#260,#230,.T.);
#314=EDGE_CURVE('',#261,#261,#231,.T.);
#315=EDGE_CURVE('',#261,#262,#150,.T.);
#316=EDGE_CURVE('',#262,#262,#232,.T.);
#317=EDGE_CURVE('',#263,#263,#233,.T.);
#318=EDGE_CURVE('',#263,#264,#151,.T.);
#319=EDGE_CURVE('',#264,#264,#234,.T.);
#320=EDGE_CURVE('',#265,#266,#152,.T.);
#321=EDGE_CURVE('',#266,#267,#153,.T.);
#322=EDGE_CURVE('',#267,#268,#154,.T.);
#323=EDGE_CURVE('',#268,#265,#155,.T.);
#324=EDGE_CURVE('',#269,#265,#156,.T.);
#325=EDGE_CURVE('',#269,#270,#157,.T.);
#326=EDGE_CURVE('',#270,#266,#158,.T.);
#327=EDGE_CURVE('',#271,#268,#159,.T.);
#328=EDGE_CURVE('',#272,#271,#160,.T.);
#329=EDGE_CURVE('',#273,#272,#161,.T.);
#330=EDGE_CURVE('',#269,#273,#162,.T.);
#331=EDGE_CURVE('',#274,#274,#235,.T.);
#332=EDGE_CURVE('',#274,#275,#163,.T.);
#333=EDGE_CURVE('',#273,#275,#236,.T.);
#334=EDGE_CURVE('',#272,#273,#237,.T.);
#335=EDGE_CURVE('',#275,#272,#238,.T.);
#336=EDGE_CURVE('',#276,#267,#164,.T.);
#337=EDGE_CURVE('',#271,#276,#165,.T.);
#338=EDGE_CURVE('',#276,#277,#166,.T.);
#339=EDGE_CURVE('',#278,#267,#167,.T.);
#340=EDGE_CURVE('',#277,#278,#168,.T.);
#341=EDGE_CURVE('',#277,#279,#169,.T.);
#342=EDGE_CURVE('',#280,#278,#170,.T.);
#343=EDGE_CURVE('',#279,#280,#171,.T.);
#344=EDGE_CURVE('',#279,#270,#172,.T.);
#345=EDGE_CURVE('',#266,#280,#173,.T.);
#346=ORIENTED_EDGE('',*,*,#281,.F.);
#347=ORIENTED_EDGE('',*,*,#282,.T.);
#348=ORIENTED_EDGE('',*,*,#283,.T.);
#349=ORIENTED_EDGE('',*,*,#282,.F.);
#350=ORIENTED_EDGE('',*,*,#283,.F.);
#351=ORIENTED_EDGE('',*,*,#284,.F.);
#352=ORIENTED_EDGE('',*,*,#285,.T.);
#353=ORIENTED_EDGE('',*,*,#286,.T.);
#354=ORIENTED_EDGE('',*,*,#285,.F.);
#355=ORIENTED_EDGE('',*,*,#286,.F.);
#356=ORIENTED_EDGE('',*,*,#287,.F.);
#357=ORIENTED_EDGE('',*,*,#288,.T.);
#358=ORIENTED_EDGE('',*,*,#289,.T.);
#359=ORIENTED_EDGE('',*,*,#288,.F.);
#360=ORIENTED_EDGE('',*,*,#289,.F.);
#361=ORIENTED_EDGE('',*,*,#290,.F.);
#362=ORIENTED_EDGE('',*,*,#291,.T.);
#363=ORIENTED_EDGE('',*,*,#292,.T.);
#364=ORIENTED_EDGE('',*,*,#291,.F.);
#365=ORIENTED_EDGE('',*,*,#292,.F.);
#366=ORIENTED_EDGE('',*,*,#293,.F.);
#367=ORIENTED_EDGE('',*,*,#294,.T.);
#368=ORIENTED_EDGE('',*,*,#295,.T.);
#369=ORIENTED_EDGE('',*,*,#294,.F.);
#370=ORIENTED_EDGE('',*,*,#295,.F.);
#371=ORIENTED_EDGE('',*,*,#296,.F.);
#372=ORIENTED_EDGE('',*,*,#297,.T.);
#373=ORIENTED_EDGE('',*,*,#298,.F.);
#374=ORIENTED_EDGE('',*,*,#297,.F.);
#375=ORIENTED_EDGE('',*,*,#296,.T.);
#376=ORIENTED_EDGE('',*,*,#290,.T.);
#377=ORIENTED_EDGE('',*,*,#299,.F.);
#378=ORIENTED_EDGE('',*,*,#300,.T.);
#379=ORIENTED_EDGE('',*,*,#301,.F.);
#380=ORIENTED_EDGE('',*,*,#300,.F.);
#381=ORIENTED_EDGE('',*,*,#299,.T.);
#382=ORIENTED_EDGE('',*,*,#284,.T.);
#383=ORIENTED_EDGE('',*,*,#302,.F.);
#384=ORIENTED_EDGE('',*,*,#303,.T.);
#385=ORIENTED_EDGE('',*,*,#304,.F.);
#386=ORIENTED_EDGE('',*,*,#303,.F.);
#387=ORIENTED_EDGE('',*,*,#302,.T.);
#388=ORIENTED_EDGE('',*,*,#287,.T.);
#389=ORIENTED_EDGE('',*,*,#305,.F.);
#390=ORIENTED_EDGE('',*,*,#306,.T.);
#391=ORIENTED_EDGE('',*,*,#307,.F.);
#392=ORIENTED_EDGE('',*,*,#306,.F.);
#393=ORIENTED_EDGE('',*,*,#305,.T.);
#394=ORIENTED_EDGE('',*,*,#293,.T.);
#395=ORIENTED_EDGE('',*,*,#308,.F.);
#396=ORIENTED_EDGE('',*,*,#309,.F.);
#397=ORIENTED_EDGE('',*,*,#310,.T.);
#398=ORIENTED_EDGE('',*,*,#311,.F.);
#399=ORIENTED_EDGE('',*,*,#308,.T.);
#400=ORIENTED_EDGE('',*,*,#312,.T.);
#401=ORIENTED_EDGE('',*,*,#281,.T.);
#402=ORIENTED_EDGE('',*,*,#309,.T.);
#403=ORIENTED_EDGE('',*,*,#312,.F.);
#404=ORIENTED_EDGE('',*,*,#311,.T.);
#405=ORIENTED_EDGE('',*,*,#313,.F.);
#406=ORIENTED_EDGE('',*,*,#314,.F.);
#407=ORIENTED_EDGE('',*,*,#315,.T.);
#408=ORIENTED_EDGE('',*,*,#316,.F.);
#409=ORIENTED_EDGE('',*,*,#315,.F.);
#410=ORIENTED_EDGE('',*,*,#314,.T.);
#411=ORIENTED_EDGE('',*,*,#317,.F.);
#412=ORIENTED_EDGE('',*,*,#318,.T.);
#413=ORIENTED_EDGE('',*,*,#319,.F.);
#414=ORIENTED_EDGE('',*,*,#318,.F.);
#415=ORIENTED_EDGE('',*,*,#317,.T.);
#416=ORIENTED_EDGE('',*,*,#313,.T.);
#417=ORIENTED_EDGE('',*,*,#310,.F.);
#418=ORIENTED_EDGE('',*,*,#320,.T.);
#419=ORIENTED_EDGE('',*,*,#321,.T.);
#420=ORIENTED_EDGE('',*,*,#322,.T.);
#421=ORIENTED_EDGE('',*,*,#323,.T.);
#422=ORIENTED_EDGE('',*,*,#320,.F.);
#423=ORIENTED_EDGE('',*,*,#324,.F.);
#424=ORIENTED_EDGE('',*,*,#325,.T.);
#425=ORIENTED_EDGE('',*,*,#326,.T.);
#426=ORIENTED_EDGE('',*,*,#323,.F.);
#427=ORIENTED_EDGE('',*,*,#327,.F.);
#428=ORIENTED_EDGE('',*,*,#328,.F.);
#429=ORIENTED_EDGE('',*,*,#329,.F.);
#430=ORIENTED_EDGE('',*,*,#330,.F.);
#431=ORIENTED_EDGE('',*,*,#324,.T.);
#432=ORIENTED_EDGE('',*,*,#316,.T.);
#433=ORIENTED_EDGE('',*,*,#331,.F.);
#434=ORIENTED_EDGE('',*,*,#332,.T.);
#435=ORIENTED_EDGE('',*,*,#333,.F.);
#436=ORIENTED_EDGE('',*,*,#334,.F.);
#437=ORIENTED_EDGE('',*,*,#335,.F.);
#438=ORIENTED_EDGE('',*,*,#332,.F.);
#439=ORIENTED_EDGE('',*,*,#329,.T.);
#440=ORIENTED_EDGE('',*,*,#334,.T.);
#441=ORIENTED_EDGE('',*,*,#331,.T.);
#442=ORIENTED_EDGE('',*,*,#322,.F.);
#443=ORIENTED_EDGE('',*,*,#336,.F.);
#444=ORIENTED_EDGE('',*,*,#337,.F.);
#445=ORIENTED_EDGE('',*,*,#327,.T.);
#446=ORIENTED_EDGE('',*,*,#338,.F.);
#447=ORIENTED_EDGE('',*,*,#336,.T.);
#448=ORIENTED_EDGE('',*,*,#339,.F.);
#449=ORIENTED_EDGE('',*,*,#340,.F.);
#450=ORIENTED_EDGE('',*,*,#341,.F.);
#451=ORIENTED_EDGE('',*,*,#340,.T.);
#452=ORIENTED_EDGE('',*,*,#342,.F.);
#453=ORIENTED_EDGE('',*,*,#343,.F.);
#454=ORIENTED_EDGE('',*,*,#298,.T.);
#455=ORIENTED_EDGE('',*,*,#301,.T.);
#456=ORIENTED_EDGE('',*,*,#304,.T.);
#457=ORIENTED_EDGE('',*,*,#307,.T.);
#458=ORIENTED_EDGE('',*,*,#319,.T.);
#459=ORIENTED_EDGE('',*,*,#344,.F.);
#460=ORIENTED_EDGE('',*,*,#343,.T.);
#461=ORIENTED_EDGE('',*,*,#345,.F.);
#462=ORIENTED_EDGE('',*,*,#326,.F.);
#463=ORIENTED_EDGE('',*,*,#321,.F.);
#464=ORIENTED_EDGE('',*,*,#345,.T.);
#465=ORIENTED_EDGE('',*,*,#342,.T.);
#466=ORIENTED_EDGE('',*,*,#339,.T.);
#467=ORIENTED_EDGE('',*,*,#333,.T.);
#468=ORIENTED_EDGE('',*,*,#335,.T.);
#469=ORIENTED_EDGE('',*,*,#328,.T.);
#470=ORIENTED_EDGE('',*,*,#337,.T.);
#471=ORIENTED_EDGE('',*,*,#338,.T.);
#472=ORIENTED_EDGE('',*,*,#341,.T.);
#473=ORIENTED_EDGE('',*,*,#344,.T.);
#474=ORIENTED_EDGE('',*,*,#325,.F.);
#475=ORIENTED_EDGE('',*,*,#330,.T.);
#476=CYLINDRICAL_SURFACE('',#540,1.2645);
#477=CYLINDRICAL_SURFACE('',#544,1.2645);
#478=CYLINDRICAL_SURFACE('',#548,1.2645);
#479=CYLINDRICAL_SURFACE('',#552,1.2645);
#480=CYLINDRICAL_SURFACE('',#556,1.2645);
#481=CYLINDRICAL_SURFACE('',#560,3.50000000000001);
#482=CYLINDRICAL_SURFACE('',#564,3.50000000000001);
#483=CYLINDRICAL_SURFACE('',#568,3.5);
#484=CYLINDRICAL_SURFACE('',#572,3.5);
#485=CYLINDRICAL_SURFACE('',#579,3.);
#486=CYLINDRICAL_SURFACE('',#581,6.5);
#487=CYLINDRICAL_SURFACE('',#585,6.625);
#488=CYLINDRICAL_SURFACE('',#592,12.15);
#489=ADVANCED_FACE('',(#51),#476,.F.);
#490=ADVANCED_FACE('',(#52),#27,.F.);
#491=ADVANCED_FACE('',(#53),#477,.F.);
#492=ADVANCED_FACE('',(#54),#28,.F.);
#493=ADVANCED_FACE('',(#55),#478,.F.);
#494=ADVANCED_FACE('',(#56),#29,.F.);
#495=ADVANCED_FACE('',(#57),#479,.F.);
#496=ADVANCED_FACE('',(#58),#30,.F.);
#497=ADVANCED_FACE('',(#59),#480,.F.);
#498=ADVANCED_FACE('',(#60),#31,.F.);
#499=ADVANCED_FACE('',(#61),#481,.T.);
#500=ADVANCED_FACE('',(#62,#15),#32,.T.);
#501=ADVANCED_FACE('',(#63),#482,.T.);
#502=ADVANCED_FACE('',(#64,#16),#33,.T.);
#503=ADVANCED_FACE('',(#65),#483,.T.);
#504=ADVANCED_FACE('',(#66,#17),#34,.T.);
#505=ADVANCED_FACE('',(#67),#484,.T.);
#506=ADVANCED_FACE('',(#68,#18),#35,.T.);
#507=ADVANCED_FACE('',(#69),#36,.F.);
#508=ADVANCED_FACE('',(#70,#19),#37,.T.);
#509=ADVANCED_FACE('',(#71),#485,.T.);
#510=ADVANCED_FACE('',(#72),#486,.T.);
#511=ADVANCED_FACE('',(#73),#38,.T.);
#512=ADVANCED_FACE('',(#74),#487,.T.);
#513=ADVANCED_FACE('',(#75,#20),#39,.T.);
#514=ADVANCED_FACE('',(#76),#40,.T.);
#515=ADVANCED_FACE('',(#77),#41,.T.);
#516=ADVANCED_FACE('',(#78,#21),#42,.T.);
#517=ADVANCED_FACE('',(#79),#488,.T.);
#518=ADVANCED_FACE('',(#80),#43,.T.);
#519=ADVANCED_FACE('',(#81),#44,.F.);
#520=ADVANCED_FACE('',(#82),#45,.T.);
#521=ADVANCED_FACE('',(#83),#46,.T.);
#522=ADVANCED_FACE('',(#84,#22,#23,#24,#25,#26),#47,.T.);
#523=ADVANCED_FACE('',(#85),#48,.T.);
#524=ADVANCED_FACE('',(#86),#49,.T.);
#525=ADVANCED_FACE('',(#87),#50,.F.);
#526=CLOSED_SHELL('',(#489,#490,#491,#492,#493,#494,#495,#496,#497,#498,
#499,#500,#501,#502,#503,#504,#505,#506,#507,#508,#509,#510,#511,#512,#513,
#514,#515,#516,#517,#518,#519,#520,#521,#522,#523,#524,#525));
#527=DERIVED_UNIT_ELEMENT(#529,1.);
#528=DERIVED_UNIT_ELEMENT(#924,-3.);
#529=(
MASS_UNIT()
NAMED_UNIT(*)
SI_UNIT(.KILO.,.GRAM.)
);
#530=DERIVED_UNIT((#527,#528));
#531=MEASURE_REPRESENTATION_ITEM('density measure',
POSITIVE_RATIO_MEASURE(7850.),#530);
#532=PROPERTY_DEFINITION_REPRESENTATION(#537,#534);
#533=PROPERTY_DEFINITION_REPRESENTATION(#538,#535);
#534=REPRESENTATION('material name',(#536),#921);
#535=REPRESENTATION('density',(#531),#921);
#536=DESCRIPTIVE_REPRESENTATION_ITEM('Steel','Steel');
#537=PROPERTY_DEFINITION('material property','material name',#931);
#538=PROPERTY_DEFINITION('material property','density of part',#931);
#539=AXIS2_PLACEMENT_3D('',#774,#605,#606);
#540=AXIS2_PLACEMENT_3D('',#775,#607,#608);
#541=AXIS2_PLACEMENT_3D('',#777,#609,#610);
#542=AXIS2_PLACEMENT_3D('',#780,#612,#613);
#543=AXIS2_PLACEMENT_3D('',#781,#614,#615);
#544=AXIS2_PLACEMENT_3D('',#782,#616,#617);
#545=AXIS2_PLACEMENT_3D('',#784,#618,#619);
#546=AXIS2_PLACEMENT_3D('',#787,#621,#622);
#547=AXIS2_PLACEMENT_3D('',#788,#623,#624);
#548=AXIS2_PLACEMENT_3D('',#789,#625,#626);
#549=AXIS2_PLACEMENT_3D('',#791,#627,#628);
#550=AXIS2_PLACEMENT_3D('',#794,#630,#631);
#551=AXIS2_PLACEMENT_3D('',#795,#632,#633);
#552=AXIS2_PLACEMENT_3D('',#796,#634,#635);
#553=AXIS2_PLACEMENT_3D('',#798,#636,#637);
#554=AXIS2_PLACEMENT_3D('',#801,#639,#640);
#555=AXIS2_PLACEMENT_3D('',#802,#641,#642);
#556=AXIS2_PLACEMENT_3D('',#803,#643,#644);
#557=AXIS2_PLACEMENT_3D('',#805,#645,#646);
#558=AXIS2_PLACEMENT_3D('',#808,#648,#649);
#559=AXIS2_PLACEMENT_3D('',#809,#650,#651);
#560=AXIS2_PLACEMENT_3D('',#810,#652,#653);
#561=AXIS2_PLACEMENT_3D('',#812,#654,#655);
#562=AXIS2_PLACEMENT_3D('',#815,#657,#658);
#563=AXIS2_PLACEMENT_3D('',#816,#659,#660);
#564=AXIS2_PLACEMENT_3D('',#817,#661,#662);
#565=AXIS2_PLACEMENT_3D('',#819,#663,#664);
#566=AXIS2_PLACEMENT_3D('',#822,#666,#667);
#567=AXIS2_PLACEMENT_3D('',#823,#668,#669);
#568=AXIS2_PLACEMENT_3D('',#824,#670,#671);
#569=AXIS2_PLACEMENT_3D('',#826,#672,#673);
#570=AXIS2_PLACEMENT_3D('',#829,#675,#676);
#571=AXIS2_PLACEMENT_3D('',#830,#677,#678);
#572=AXIS2_PLACEMENT_3D('',#831,#679,#680);
#573=AXIS2_PLACEMENT_3D('',#833,#681,#682);
#574=AXIS2_PLACEMENT_3D('',#836,#684,#685);
#575=AXIS2_PLACEMENT_3D('',#837,#686,#687);
#576=AXIS2_PLACEMENT_3D('',#838,#688,#689);
#577=AXIS2_PLACEMENT_3D('',#847,#694,#695);
#578=AXIS2_PLACEMENT_3D('',#848,#696,#697);
#579=AXIS2_PLACEMENT_3D('',#849,#698,#699);
#580=AXIS2_PLACEMENT_3D('',#850,#700,#701);
#581=AXIS2_PLACEMENT_3D('',#851,#702,#703);
#582=AXIS2_PLACEMENT_3D('',#853,#704,#705);
#583=AXIS2_PLACEMENT_3D('',#856,#707,#708);
#584=AXIS2_PLACEMENT_3D('',#857,#709,#710);
#585=AXIS2_PLACEMENT_3D('',#858,#711,#712);
#586=AXIS2_PLACEMENT_3D('',#860,#713,#714);
#587=AXIS2_PLACEMENT_3D('',#863,#716,#717);
#588=AXIS2_PLACEMENT_3D('',#864,#718,#719);
#589=AXIS2_PLACEMENT_3D('',#865,#720,#721);
#590=AXIS2_PLACEMENT_3D('',#874,#726,#727);
#591=AXIS2_PLACEMENT_3D('',#880,#731,#732);
#592=AXIS2_PLACEMENT_3D('',#888,#737,#738);
#593=AXIS2_PLACEMENT_3D('',#890,#739,#740);
#594=AXIS2_PLACEMENT_3D('',#893,#742,#743);
#595=AXIS2_PLACEMENT_3D('',#894,#744,#745);
#596=AXIS2_PLACEMENT_3D('',#895,#746,#747);
#597=AXIS2_PLACEMENT_3D('',#896,#748,#749);
#598=AXIS2_PLACEMENT_3D('',#897,#750,#751);
#599=AXIS2_PLACEMENT_3D('',#898,#752,#753);
#600=AXIS2_PLACEMENT_3D('',#902,#756,#757);
#601=AXIS2_PLACEMENT_3D('',#908,#761,#762);
#602=AXIS2_PLACEMENT_3D('',#914,#766,#767);
#603=AXIS2_PLACEMENT_3D('',#917,#770,#771);
#604=AXIS2_PLACEMENT_3D('',#918,#772,#773);
#605=DIRECTION('axis',(0.,0.,1.));
#606=DIRECTION('refdir',(1.,0.,0.));
#607=DIRECTION('center_axis',(0.,0.,-1.));
#608=DIRECTION('ref_axis',(1.,0.,0.));
#609=DIRECTION('center_axis',(0.,0.,-1.));
#610=DIRECTION('ref_axis',(1.,0.,0.));
#611=DIRECTION('',(0.,0.,-1.));
#612=DIRECTION('center_axis',(0.,0.,-1.));
#613=DIRECTION('ref_axis',(1.,0.,0.));
#614=DIRECTION('center_axis',(0.,0.,-1.));
#615=DIRECTION('ref_axis',(1.,0.,0.));
#616=DIRECTION('center_axis',(0.,0.,-1.));
#617=DIRECTION('ref_axis',(1.,0.,0.));
#618=DIRECTION('center_axis',(0.,0.,-1.));
#619=DIRECTION('ref_axis',(1.,0.,0.));
#620=DIRECTION('',(0.,0.,-1.));
#621=DIRECTION('center_axis',(0.,0.,-1.));
#622=DIRECTION('ref_axis',(1.,0.,0.));
#623=DIRECTION('center_axis',(0.,0.,-1.));
#624=DIRECTION('ref_axis',(1.,0.,0.));
#625=DIRECTION('center_axis',(0.,0.,-1.));
#626=DIRECTION('ref_axis',(1.,0.,0.));
#627=DIRECTION('center_axis',(0.,0.,-1.));
#628=DIRECTION('ref_axis',(1.,0.,0.));
#629=DIRECTION('',(0.,0.,-1.));
#630=DIRECTION('center_axis',(0.,0.,-1.));
#631=DIRECTION('ref_axis',(1.,0.,0.));
#632=DIRECTION('center_axis',(0.,0.,-1.));
#633=DIRECTION('ref_axis',(1.,0.,0.));
#634=DIRECTION('center_axis',(0.,0.,-1.));
#635=DIRECTION('ref_axis',(1.,0.,0.));
#636=DIRECTION('center_axis',(0.,0.,-1.));
#637=DIRECTION('ref_axis',(1.,0.,0.));
#638=DIRECTION('',(0.,0.,-1.));
#639=DIRECTION('center_axis',(0.,0.,-1.));
#640=DIRECTION('ref_axis',(1.,0.,0.));
#641=DIRECTION('center_axis',(0.,0.,-1.));
#642=DIRECTION('ref_axis',(1.,0.,0.));
#643=DIRECTION('center_axis',(0.,0.,-1.));
#644=DIRECTION('ref_axis',(1.,0.,0.));
#645=DIRECTION('center_axis',(0.,0.,-1.));
#646=DIRECTION('ref_axis',(1.,0.,0.));
#647=DIRECTION('',(0.,0.,-1.));
#648=DIRECTION('center_axis',(0.,0.,-1.));
#649=DIRECTION('ref_axis',(1.,0.,0.));
#650=DIRECTION('center_axis',(0.,0.,-1.));
#651=DIRECTION('ref_axis',(1.,0.,0.));
#652=DIRECTION('center_axis',(0.,0.,1.));
#653=DIRECTION('ref_axis',(-1.,0.,0.));
#654=DIRECTION('center_axis',(0.,0.,1.));
#655=DIRECTION('ref_axis',(-1.,0.,0.));
#656=DIRECTION('',(0.,0.,-1.));
#657=DIRECTION('center_axis',(0.,0.,-1.));
#658=DIRECTION('ref_axis',(-1.,0.,0.));
#659=DIRECTION('center_axis',(0.,0.,1.));
#660=DIRECTION('ref_axis',(-1.,0.,0.));
#661=DIRECTION('center_axis',(0.,0.,1.));
#662=DIRECTION('ref_axis',(-1.,0.,0.));
#663=DIRECTION('center_axis',(0.,0.,1.));
#664=DIRECTION('ref_axis',(-1.,0.,0.));
#665=DIRECTION('',(0.,0.,-1.));
#666=DIRECTION('center_axis',(0.,0.,-1.));
#667=DIRECTION('ref_axis',(-1.,0.,0.));
#668=DIRECTION('center_axis',(0.,0.,1.));
#669=DIRECTION('ref_axis',(-1.,0.,0.));
#670=DIRECTION('center_axis',(0.,0.,1.));
#671=DIRECTION('ref_axis',(-1.,0.,0.));
#672=DIRECTION('center_axis',(0.,0.,1.));
#673=DIRECTION('ref_axis',(-1.,0.,0.));
#674=DIRECTION('',(0.,0.,-1.));
#675=DIRECTION('center_axis',(0.,0.,-1.));
#676=DIRECTION('ref_axis',(-1.,0.,0.));
#677=DIRECTION('center_axis',(0.,0.,1.));
#678=DIRECTION('ref_axis',(-1.,0.,0.));
#679=DIRECTION('center_axis',(0.,0.,1.));
#680=DIRECTION('ref_axis',(-1.,0.,0.));
#681=DIRECTION('center_axis',(0.,0.,1.));
#682=DIRECTION('ref_axis',(-1.,0.,0.));
#683=DIRECTION('',(0.,0.,-1.));
#684=DIRECTION('center_axis',(0.,0.,-1.));
#685=DIRECTION('ref_axis',(-1.,0.,0.));
#686=DIRECTION('center_axis',(0.,0.,1.));
#687=DIRECTION('ref_axis',(-1.,0.,0.));
#688=DIRECTION('center_axis',(-1.,0.,0.));
#689=DIRECTION('ref_axis',(0.,1.,0.));
#690=DIRECTION('',(0.,1.,0.));
#691=DIRECTION('',(0.,0.,1.));
#692=DIRECTION('',(0.,1.,0.));
#693=DIRECTION('',(0.,0.,-1.));
#694=DIRECTION('center_axis',(0.,0.,1.));
#695=DIRECTION('ref_axis',(-1.,0.,0.));
#696=DIRECTION('center_axis',(0.,0.,1.));
#697=DIRECTION('ref_axis',(-1.,0.,0.));
#698=DIRECTION('center_axis',(0.,0.,1.));
#699=DIRECTION('ref_axis',(-1.,0.,0.));
#700=DIRECTION('center_axis',(0.,0.,-1.));
#701=DIRECTION('ref_axis',(-1.,0.,0.));
#702=DIRECTION('center_axis',(0.,0.,-1.));
#703=DIRECTION('ref_axis',(1.,0.,0.));
#704=DIRECTION('center_axis',(0.,0.,-1.));
#705=DIRECTION('ref_axis',(1.,0.,0.));
#706=DIRECTION('',(0.,0.,1.));
#707=DIRECTION('center_axis',(0.,0.,1.));
#708=DIRECTION('ref_axis',(1.,0.,0.));
#709=DIRECTION('center_axis',(0.,0.,-1.));
#710=DIRECTION('ref_axis',(1.,0.,0.));
#711=DIRECTION('center_axis',(0.,0.,1.));
#712=DIRECTION('ref_axis',(-1.,0.,0.));
#713=DIRECTION('center_axis',(0.,0.,1.));
#714=DIRECTION('ref_axis',(-1.,0.,0.));
#715=DIRECTION('',(0.,0.,-1.));
#716=DIRECTION('center_axis',(0.,0.,-1.));
#717=DIRECTION('ref_axis',(-1.,0.,0.));
#718=DIRECTION('center_axis',(0.,0.,1.));
#719=DIRECTION('ref_axis',(-1.,0.,0.));
#720=DIRECTION('center_axis',(0.,0.214657030690331,-0.976689489641007));
#721=DIRECTION('ref_axis',(-1.,0.,0.));
#722=DIRECTION('',(-0.747980127941506,0.648249444215973,0.142472405322192));
#723=DIRECTION('',(1.,0.,0.));
#724=DIRECTION('',(-0.747980127941506,-0.648249444215973,-0.142472405322192));
#725=DIRECTION('',(-1.,0.,0.));
#726=DIRECTION('center_axis',(-0.187112107889995,0.,-0.982338566422475));
#727=DIRECTION('ref_axis',(-0.982338566422475,0.,0.187112107889995));
#728=DIRECTION('',(0.,1.,0.));
#729=DIRECTION('',(-0.982338566422475,0.,0.187112107889995));
#730=DIRECTION('',(0.,1.,0.));
#731=DIRECTION('center_axis',(0.,0.,-1.));
#732=DIRECTION('ref_axis',(-1.,0.,0.));
#733=DIRECTION('',(0.,1.,0.));
#734=DIRECTION('',(1.,0.,0.));
#735=DIRECTION('',(1.,0.,0.));
#736=DIRECTION('',(1.,0.,0.));
#737=DIRECTION('center_axis',(0.,-1.,0.));
#738=DIRECTION('ref_axis',(1.,0.,0.));
#739=DIRECTION('center_axis',(0.,-1.,0.));
#740=DIRECTION('ref_axis',(1.,0.,0.));
#741=DIRECTION('',(0.,1.,0.));
#742=DIRECTION('center_axis',(0.,1.,0.));
#743=DIRECTION('ref_axis',(1.,0.,0.));
#744=DIRECTION('center_axis',(0.,1.,0.));
#745=DIRECTION('ref_axis',(1.,0.,0.));
#746=DIRECTION('center_axis',(0.,1.,0.));
#747=DIRECTION('ref_axis',(1.,0.,0.));
#748=DIRECTION('center_axis',(0.,1.,0.));
#749=DIRECTION('ref_axis',(1.,0.,0.));
#750=DIRECTION('center_axis',(0.,1.,0.));
#751=DIRECTION('ref_axis',(1.,0.,0.));
#752=DIRECTION('center_axis',(0.187112107889995,0.,-0.982338566422475));
#753=DIRECTION('ref_axis',(-0.982338566422475,0.,-0.187112107889995));
#754=DIRECTION('',(0.,1.,0.));
#755=DIRECTION('',(0.982338566422475,0.,0.187112107889995));
#756=DIRECTION('center_axis',(1.,0.,0.));
#757=DIRECTION('ref_axis',(0.,0.,-1.));
#758=DIRECTION('',(0.,0.,1.));
#759=DIRECTION('',(0.,0.,-1.));
#760=DIRECTION('',(0.,1.,0.));
#761=DIRECTION('center_axis',(0.,0.,1.));
#762=DIRECTION('ref_axis',(1.,0.,0.));
#763=DIRECTION('',(-1.,0.,0.));
#764=DIRECTION('',(1.,0.,0.));
#765=DIRECTION('',(0.,1.,0.));
#766=DIRECTION('center_axis',(-1.,0.,0.));
#767=DIRECTION('ref_axis',(0.,0.,1.));
#768=DIRECTION('',(0.,0.,-1.));
#769=DIRECTION('',(0.,0.,1.));
#770=DIRECTION('center_axis',(0.,1.,0.));
#771=DIRECTION('ref_axis',(0.,0.,1.));
#772=DIRECTION('center_axis',(0.,1.,0.));
#773=DIRECTION('ref_axis',(1.,0.,0.));
#774=CARTESIAN_POINT('',(0.,0.,0.));
#775=CARTESIAN_POINT('Origin',(15.8880162970055,31.1,33.5));
#776=CARTESIAN_POINT('',(14.6235162970055,31.1,37.5));
#777=CARTESIAN_POINT('Origin',(15.8880162970055,31.1,37.5));
#778=CARTESIAN_POINT('',(14.6235162970055,31.1,29.5));
#779=CARTESIAN_POINT('',(14.6235162970055,31.1,33.5));
#780=CARTESIAN_POINT('Origin',(15.8880162970055,31.1,29.5));
#781=CARTESIAN_POINT('Origin',(15.8880162970055,31.1,29.5));
#782=CARTESIAN_POINT('Origin',(25.,8.10000000000001,22.5));
#783=CARTESIAN_POINT('',(23.7355,8.10000000000001,24.5));
#784=CARTESIAN_POINT('Origin',(25.,8.10000000000001,24.5));
#785=CARTESIAN_POINT('',(23.7355,8.10000000000001,20.5));
#786=CARTESIAN_POINT('',(23.7355,8.10000000000001,22.5));
#787=CARTESIAN_POINT('Origin',(25.,8.10000000000001,20.5));
#788=CARTESIAN_POINT('Origin',(25.,8.10000000000001,20.5));
#789=CARTESIAN_POINT('Origin',(7.,41.1,22.5));
#790=CARTESIAN_POINT('',(5.7355,41.1,24.5));
#791=CARTESIAN_POINT('Origin',(7.,41.1,24.5));
#792=CARTESIAN_POINT('',(5.7355,41.1,20.5));
#793=CARTESIAN_POINT('',(5.7355,41.1,22.5));
#794=CARTESIAN_POINT('Origin',(7.,41.1,20.5));
#795=CARTESIAN_POINT('Origin',(7.,41.1,20.5));
#796=CARTESIAN_POINT('Origin',(25.,41.1,22.5));
#797=CARTESIAN_POINT('',(23.7355,41.1,24.5));
#798=CARTESIAN_POINT('Origin',(25.,41.1,24.5));
#799=CARTESIAN_POINT('',(23.7355,41.1,20.5));
#800=CARTESIAN_POINT('',(23.7355,41.1,22.5));
#801=CARTESIAN_POINT('Origin',(25.,41.1,20.5));
#802=CARTESIAN_POINT('Origin',(25.,41.1,20.5));
#803=CARTESIAN_POINT('Origin',(7.,8.1,22.5));
#804=CARTESIAN_POINT('',(5.7355,8.1,24.5));
#805=CARTESIAN_POINT('Origin',(7.,8.1,24.5));
#806=CARTESIAN_POINT('',(5.7355,8.1,20.5));
#807=CARTESIAN_POINT('',(5.7355,8.1,22.5));
#808=CARTESIAN_POINT('Origin',(7.,8.1,20.5));
#809=CARTESIAN_POINT('Origin',(7.,8.1,20.5));
#810=CARTESIAN_POINT('Origin',(25.,41.1,22.5));
#811=CARTESIAN_POINT('',(28.5,41.1,24.5));
#812=CARTESIAN_POINT('Origin',(25.,41.1,24.5));
#813=CARTESIAN_POINT('',(28.5,41.1,22.5));
#814=CARTESIAN_POINT('',(28.5,41.1,22.5));
#815=CARTESIAN_POINT('Origin',(25.,41.1,22.5));
#816=CARTESIAN_POINT('Origin',(25.,41.1,24.5));
#817=CARTESIAN_POINT('Origin',(25.,8.10000000000001,22.5));
#818=CARTESIAN_POINT('',(28.5,8.10000000000001,24.5));
#819=CARTESIAN_POINT('Origin',(25.,8.10000000000001,24.5));
#820=CARTESIAN_POINT('',(28.5,8.10000000000001,22.5));
#821=CARTESIAN_POINT('',(28.5,8.10000000000001,22.5));
#822=CARTESIAN_POINT('Origin',(25.,8.10000000000001,22.5));
#823=CARTESIAN_POINT('Origin',(25.,8.1,24.5));
#824=CARTESIAN_POINT('Origin',(7.,41.1,22.5));
#825=CARTESIAN_POINT('',(10.5,41.1,24.5));
#826=CARTESIAN_POINT('Origin',(7.,41.1,24.5));
#827=CARTESIAN_POINT('',(10.5,41.1,22.5));
#828=CARTESIAN_POINT('',(10.5,41.1,22.5));
#829=CARTESIAN_POINT('Origin',(7.,41.1,22.5));
#830=CARTESIAN_POINT('Origin',(7.,41.1,24.5));
#831=CARTESIAN_POINT('Origin',(7.,8.1,22.5));
#832=CARTESIAN_POINT('',(10.5,8.1,24.5));
#833=CARTESIAN_POINT('Origin',(7.,8.1,24.5));
#834=CARTESIAN_POINT('',(10.5,8.1,22.5));
#835=CARTESIAN_POINT('',(10.5,8.1,22.5));
#836=CARTESIAN_POINT('Origin',(7.,8.1,22.5));
#837=CARTESIAN_POINT('Origin',(7.,8.1,24.5));
#838=CARTESIAN_POINT('Origin',(18.5,29.4416876048223,37.5));
#839=CARTESIAN_POINT('',(18.5,29.4416876048223,37.5));
#840=CARTESIAN_POINT('',(18.5,32.7583123951777,37.5));
#841=CARTESIAN_POINT('',(18.5,30.2708438024112,37.5));
#842=CARTESIAN_POINT('',(18.5,29.4416876048223,23.5));
#843=CARTESIAN_POINT('',(18.5,29.4416876048223,22.5));
#844=CARTESIAN_POINT('',(18.5,32.7583123951777,23.5));
#845=CARTESIAN_POINT('',(18.5,29.4416876048223,23.5));
#846=CARTESIAN_POINT('',(18.5,32.7583123951777,22.5));
#847=CARTESIAN_POINT('Origin',(16.,31.1,37.5));
#848=CARTESIAN_POINT('Origin',(16.,31.1,37.5));
#849=CARTESIAN_POINT('Origin',(16.,31.1,22.5));
#850=CARTESIAN_POINT('Origin',(16.,31.1,23.5));
#851=CARTESIAN_POINT('Origin',(16.,31.1,0.));
#852=CARTESIAN_POINT('',(9.5,31.1,-0.4));
#853=CARTESIAN_POINT('Origin',(16.,31.1,-0.4));
#854=CARTESIAN_POINT('',(9.5,31.1,0.));
#855=CARTESIAN_POINT('',(9.5,31.1,0.));
#856=CARTESIAN_POINT('Origin',(16.,31.1,0.));
#857=CARTESIAN_POINT('Origin',(16.,31.1,-0.4));
#858=CARTESIAN_POINT('Origin',(16.,31.1,22.5));
#859=CARTESIAN_POINT('',(22.625,31.1,23.5));
#860=CARTESIAN_POINT('Origin',(16.,31.1,23.5));
#861=CARTESIAN_POINT('',(22.625,31.1,22.5));
#862=CARTESIAN_POINT('',(22.625,31.1,22.5));
#863=CARTESIAN_POINT('Origin',(16.,31.1,22.5));
#864=CARTESIAN_POINT('Origin',(16.,31.1,23.5));
#865=CARTESIAN_POINT('Origin',(21.375,43.825,0.5));
#866=CARTESIAN_POINT('',(5.25,41.55,0.));
#867=CARTESIAN_POINT('',(0.,46.1,1.));
#868=CARTESIAN_POINT('',(19.2559055617578,29.4115485131432,-2.66779153557292));
#869=CARTESIAN_POINT('',(32.,46.1,1.));
#870=CARTESIAN_POINT('',(21.375,46.1,1.));
#871=CARTESIAN_POINT('',(26.75,41.55,0.));
#872=CARTESIAN_POINT('',(17.2731718765858,33.3367489597077,-1.80511011874556));
#873=CARTESIAN_POINT('',(21.375,41.55,0.));
#874=CARTESIAN_POINT('Origin',(5.25,0.,0.));
#875=CARTESIAN_POINT('',(5.25,0.,0.));
#876=CARTESIAN_POINT('',(5.25,0.,0.));
#877=CARTESIAN_POINT('',(0.,0.,1.));
#878=CARTESIAN_POINT('',(5.25,0.,0.));
#879=CARTESIAN_POINT('',(0.,0.,1.));
#880=CARTESIAN_POINT('Origin',(26.75,0.,0.));
#881=CARTESIAN_POINT('',(26.75,0.,0.));
#882=CARTESIAN_POINT('',(26.75,0.,0.));
#883=CARTESIAN_POINT('',(26.4278169564924,0.,0.));
#884=CARTESIAN_POINT('',(5.25,0.,0.));
#885=CARTESIAN_POINT('',(10.6721830435075,0.,0.));
#886=CARTESIAN_POINT('',(5.25,0.,0.));
#887=CARTESIAN_POINT('',(5.25,0.,0.));
#888=CARTESIAN_POINT('Origin',(18.55,0.,9.25000000000001));
#889=CARTESIAN_POINT('',(6.39999999999999,-30.7,9.25000000000001));
#890=CARTESIAN_POINT('Origin',(18.55,-30.7,9.25000000000001));
#891=CARTESIAN_POINT('',(6.39999999999999,0.,9.25));
#892=CARTESIAN_POINT('',(6.39999999999999,0.,9.25));
#893=CARTESIAN_POINT('Origin',(18.55,0.,9.25000000000001));
#894=CARTESIAN_POINT('Origin',(18.55,0.,9.25000000000001));
#895=CARTESIAN_POINT('Origin',(18.55,0.,9.25000000000001));
#896=CARTESIAN_POINT('Origin',(18.55,0.,9.25000000000001));
#897=CARTESIAN_POINT('Origin',(18.55,-30.7,9.25000000000001));
#898=CARTESIAN_POINT('Origin',(32.,0.,1.));
#899=CARTESIAN_POINT('',(32.,0.,1.));
#900=CARTESIAN_POINT('',(32.,0.,1.));
#901=CARTESIAN_POINT('',(26.75,0.,0.));
#902=CARTESIAN_POINT('Origin',(32.,0.,22.5));
#903=CARTESIAN_POINT('',(32.,0.,22.5));
#904=CARTESIAN_POINT('',(32.,0.,0.));
#905=CARTESIAN_POINT('',(32.,46.1,22.5));
#906=CARTESIAN_POINT('',(32.,46.1,0.));
#907=CARTESIAN_POINT('',(32.,0.,22.5));
#908=CARTESIAN_POINT('Origin',(0.,0.,22.5));
#909=CARTESIAN_POINT('',(0.,0.,22.5));
#910=CARTESIAN_POINT('',(32.,0.,22.5));
#911=CARTESIAN_POINT('',(0.,46.1,22.5));
#912=CARTESIAN_POINT('',(32.,46.1,22.5));
#913=CARTESIAN_POINT('',(0.,0.,22.5));
#914=CARTESIAN_POINT('Origin',(0.,0.,1.));
#915=CARTESIAN_POINT('',(0.,0.,22.5));
#916=CARTESIAN_POINT('',(0.,46.1,22.5));
#917=CARTESIAN_POINT('Origin',(16.,46.1,11.25));
#918=CARTESIAN_POINT('Origin',(16.,0.,11.25));
#919=UNCERTAINTY_MEASURE_WITH_UNIT(LENGTH_MEASURE(0.01),#923,
'DISTANCE_ACCURACY_VALUE',
'Maximum model space distance between geometric entities at asserted c
onnectivities');
#920=UNCERTAINTY_MEASURE_WITH_UNIT(LENGTH_MEASURE(0.01),#923,
'DISTANCE_ACCURACY_VALUE',
'Maximum model space distance between geometric entities at asserted c
onnectivities');
#921=(
GEOMETRIC_REPRESENTATION_CONTEXT(3)
GLOBAL_UNCERTAINTY_ASSIGNED_CONTEXT((#919))
GLOBAL_UNIT_ASSIGNED_CONTEXT((#923,#925,#926))
REPRESENTATION_CONTEXT('','3D')
);
#922=(
GEOMETRIC_REPRESENTATION_CONTEXT(3)
GLOBAL_UNCERTAINTY_ASSIGNED_CONTEXT((#920))
GLOBAL_UNIT_ASSIGNED_CONTEXT((#923,#925,#926))
REPRESENTATION_CONTEXT('','3D')
);
#923=(
LENGTH_UNIT()
NAMED_UNIT(*)
SI_UNIT(.MILLI.,.METRE.)
);
#924=(
LENGTH_UNIT()
NAMED_UNIT(*)
SI_UNIT($,.METRE.)
);
#925=(
NAMED_UNIT(*)
PLANE_ANGLE_UNIT()
SI_UNIT($,.RADIAN.)
);
#926=(
NAMED_UNIT(*)
SI_UNIT($,.STERADIAN.)
SOLID_ANGLE_UNIT()
);
#927=SHAPE_DEFINITION_REPRESENTATION(#928,#929);
#928=PRODUCT_DEFINITION_SHAPE('',$,#931);
#929=SHAPE_REPRESENTATION('',(#539),#921);
#930=PRODUCT_DEFINITION_CONTEXT('part definition',#935,'design');
#931=PRODUCT_DEFINITION('2026-05-10-09-13-05-082','Motor',#932,#930);
#932=PRODUCT_DEFINITION_FORMATION('',$,#937);
#933=PRODUCT_RELATED_PRODUCT_CATEGORY('Motor','Motor',(#937));
#934=APPLICATION_PROTOCOL_DEFINITION('international standard',
'automotive_design',2009,#935);
#935=APPLICATION_CONTEXT(
'Core Data for Automotive Mechanical Design Process');
#936=PRODUCT_CONTEXT('part definition',#935,'mechanical');
#937=PRODUCT('2026-05-10-09-13-05-082','Motor',$,(#936));
#938=PRESENTATION_STYLE_ASSIGNMENT((#939));
#939=SURFACE_STYLE_USAGE(.BOTH.,#940);
#940=SURFACE_SIDE_STYLE('',(#941));
#941=SURFACE_STYLE_FILL_AREA(#942);
#942=FILL_AREA_STYLE('Steel - Satin',(#943));
#943=FILL_AREA_STYLE_COLOUR('Steel - Satin',#944);
#944=COLOUR_RGB('Steel - Satin',0.627450980392157,0.627450980392157,0.627450980392157);
ENDSEC;
END-ISO-10303-21;
